<svg width="124" height="38" viewBox="0 0 124 38" fill="none" xmlns="http://www.w3.org/2000/svg">
<path d="M94.5559 27.0053C94.4475 27.3051 94.3319 27.5995 94.2054 27.8975C94.3301 27.5995 94.4475 27.3087 94.5559 27.0053Z" fill="#21BF48"/>
<path d="M95.5512 22.8211C95.5151 23.1405 95.4681 23.4563 95.4121 23.7722C95.4663 23.4563 95.5133 23.1405 95.5512 22.8211Z" fill="#21BF48"/>
<path d="M95.6859 19.8146C95.6859 19.5076 95.661 19.2025 95.6379 18.8956C95.6628 19.1936 95.6788 19.4987 95.6859 19.8146Z" fill="#21BF48"/>
<path d="M95.6903 20.9012C95.6903 20.6389 95.6903 20.3748 95.6903 20.1125C95.6992 20.3748 95.6974 20.6371 95.6903 20.9012Z" fill="#21BF48"/>
<path d="M124 8.34141V23.2957C124 30.929 116.969 37.3758 108.645 37.3758C103.095 37.3758 98.1219 34.4941 95.4338 30.3045C97.3017 26.8608 98.1327 22.7497 97.7823 18.5673C97.43 14.3349 95.8908 10.3987 93.4196 7.35825C93.6532 6.11041 94.3216 4.98268 95.3088 4.17054C96.296 3.3584 97.5398 2.91307 98.8246 2.91174C100.282 2.91363 101.679 3.48635 102.709 4.50425C103.739 5.52215 104.319 6.90211 104.32 8.34141V23.2957C104.32 24.7874 106.208 26.52 108.643 26.52C110.843 26.52 113.002 24.923 113.002 23.2957V8.34141C113.003 7.62752 113.146 6.92076 113.423 6.26151C113.7 5.60225 114.107 5.00341 114.618 4.4992C115.13 3.99498 115.737 3.59527 116.405 3.32289C117.073 3.05051 117.789 2.9108 118.512 2.91174C119.968 2.91552 121.363 3.48907 122.392 4.50677C123.42 5.52446 123.999 6.90335 124 8.34141Z" fill="#6945F8"/>
<path d="M28.548 11.1249C27.1078 13.9183 26.361 17.01 26.3694 20.1447C26.3644 24.1713 27.5979 28.1045 29.9065 31.4233V31.7266C29.9051 33.1663 29.3255 34.5465 28.2948 35.5644C27.2642 36.5824 25.8668 37.1549 24.4093 37.1563C22.9521 37.1544 21.5552 36.5817 20.525 35.5638C19.4948 34.5459 18.9154 33.1659 18.914 31.7266V25.5725H10.9961V31.7266C10.9951 33.1661 10.4159 34.5463 9.38556 35.5643C8.35523 36.5823 6.95803 37.1549 5.50069 37.1563C4.0435 37.1544 2.64657 36.5817 1.61635 35.5638C0.586129 34.5459 0.00675162 33.1659 0.00531769 31.7266V8.56088C0.0072296 7.1219 0.58682 5.7424 1.61699 4.72488C2.64716 3.70736 4.04381 3.13489 5.50069 3.133C6.95771 3.13442 8.35465 3.70674 9.38492 4.72436C10.4152 5.74197 10.9946 7.12175 10.9961 8.56088V14.715H18.914V8.56088C18.9159 7.1219 19.4955 5.7424 20.5256 4.72488C21.5558 3.70736 22.9525 3.13489 24.4093 3.133C25.8665 3.13442 27.2636 3.70668 28.2942 4.72425C29.3248 5.74181 29.9046 7.12159 29.9065 8.56088V8.86957C29.4039 9.59096 28.95 10.3444 28.548 11.1249Z" fill="#6945F8"/>
<path d="M77.4266 13.9424C77.1827 13.9424 76.9352 13.9424 76.6859 13.9424C76.9985 13.9424 77.3074 13.9424 77.6109 13.9424H77.4266ZM86.2134 36.0286C86.4501 35.9269 86.6831 35.8216 86.9107 35.7092C86.6831 35.8198 86.4501 35.9269 86.2134 36.0286ZM94.2054 27.8904C94.3318 27.5995 94.4474 27.3051 94.5558 26.9982C94.4474 27.3087 94.33 27.5995 94.2054 27.8904V27.8904ZM95.4121 23.7722C95.4681 23.4563 95.5151 23.1405 95.5512 22.8211C95.5133 23.1405 95.4663 23.4563 95.4121 23.7722V23.7722ZM95.6379 18.8867C95.6614 19.1936 95.6777 19.4987 95.6867 19.8056C95.6795 19.4987 95.6632 19.1936 95.6379 18.8867V18.8867ZM95.6939 20.1125C95.6939 20.3748 95.6939 20.6389 95.6939 20.9012C95.6975 20.6371 95.6993 20.3748 95.6939 20.1125V20.1125Z" fill="#21BF48"/>
<path d="M95.6939 20.1125C95.6631 16.936 94.845 13.8153 93.3112 11.0232C92.9172 10.3228 92.4735 9.65083 91.9834 9.01231C91.7829 8.75537 91.5787 8.50378 91.3638 8.25933C90.4019 7.15647 89.2799 6.20042 88.0344 5.42228C87.6672 5.1919 87.2886 4.97989 86.8999 4.78706C86.5549 4.60863 86.199 4.4516 85.8395 4.30351C84.1564 3.62993 82.3696 3.24436 80.5555 3.16333C78.5575 3.13299 76.3825 3.15083 74.3339 3.11515C72.0776 3.13299 69.7869 3.0188 67.5523 3.30786C64.978 3.92701 63.2275 6.409 63.4208 9.01766C68.0147 15.4769 67.9244 24.9445 63.4208 31.2806C63.3621 32.2444 63.5484 33.2074 63.9627 34.0819C64.4118 35.003 65.1148 35.7803 65.991 36.3245C66.8673 36.8686 67.8812 37.1576 68.9162 37.1581H73.3006C79.2331 37.1581 82.1524 37.2206 83.6897 36.878C86.6612 36.1725 89.3451 34.5913 91.3854 32.344C91.5661 32.1513 91.7323 31.9533 91.8967 31.7498C92.0611 31.5464 92.1929 31.3751 92.3375 31.1842C94.6769 28.0028 95.75 24.0202 95.6939 20.1125ZM84.8152 20.7067C84.7068 21.8701 84.4539 23.0531 83.8108 24.0452C83.6086 24.362 83.3657 24.6517 83.0882 24.907C82.5465 25.3834 81.904 25.7345 81.2076 25.9348C78.9892 26.5735 76.7022 26.2916 74.4079 26.3059V13.9941C75.1685 13.9941 75.9344 13.9638 76.6932 13.9531C79.6089 13.8781 83.1875 14.0369 84.313 17.2309C84.7221 18.3427 84.8931 19.5263 84.8152 20.7067Z" fill="#6945F8"/>
<path d="M56.7494 0.517181C56.8014 0.581973 56.8473 0.651251 56.8867 0.724168C56.8475 0.651119 56.8016 0.581821 56.7494 0.517181V0.517181ZM36.224 0.959699C36.2467 0.877795 36.2776 0.798303 36.3161 0.722382C36.2768 0.797966 36.2459 0.877539 36.224 0.959699V0.959699Z" fill="#21BF48"/>
<path d="M63.4136 13.5694C62.1935 10.5453 60.1633 7.90598 57.5406 5.93437C57.5551 5.83801 57.0457 1.31478 57.0439 1.21664C57.0077 0.884293 56.8485 0.576867 56.5967 0.353532C56.3449 0.130197 56.0184 0.00672613 55.6799 0.00687345C55.0495 -0.155499 51.7761 2.61019 51.2378 2.8814C48.2039 2.09274 45.0151 2.09274 41.9813 2.8814C41.4176 2.59413 38.1876 -0.141225 37.5391 0.00687345C37.2007 0.00746825 36.8744 0.131152 36.6225 0.354305C36.3705 0.577458 36.2107 0.884449 36.1734 1.21664C36.1734 1.31657 35.6693 5.83266 35.6766 5.93259C22.0664 16.0372 29.3123 37.9967 46.6131 37.9967C59.1936 38.2412 68.2026 24.7946 63.4136 13.5694ZM46.6131 27.1302C37.3277 26.9679 37.2988 13.3446 46.577 13.1412C55.9003 13.2715 55.9347 26.9714 46.6131 27.1392V27.1302Z" fill="#6945F8"/>
</svg>
